<mxfile host="app.diagrams.net" agent="Mozilla/5.0 (Windows NT 10.0; Win64; x64) AppleWebKit/537.36 (KHTML, like Gecko) Chrome/134.0.0.0 Safari/537.36" version="26.1.3">
  <diagram name="Trang-1" id="HmQg5ZdkfNNAtHUYo7Ou">
    <mxGraphModel dx="1290" dy="522" grid="1" gridSize="10" guides="1" tooltips="1" connect="1" arrows="1" fold="1" page="1" pageScale="1" pageWidth="827" pageHeight="1169" math="0" shadow="0">
      <root>
        <mxCell id="0" />
        <mxCell id="1" parent="0" />
        <mxCell id="fRPLNg00OoRIL8k4YSKu-3" value="" style="edgeStyle=orthogonalEdgeStyle;rounded=0;orthogonalLoop=1;jettySize=auto;html=1;" edge="1" parent="1" source="fRPLNg00OoRIL8k4YSKu-1" target="fRPLNg00OoRIL8k4YSKu-2">
          <mxGeometry relative="1" as="geometry" />
        </mxCell>
        <mxCell id="fRPLNg00OoRIL8k4YSKu-1" value="begin&lt;div&gt;&lt;br&gt;&lt;/div&gt;" style="rounded=1;whiteSpace=wrap;html=1;" vertex="1" parent="1">
          <mxGeometry x="260" y="150" width="120" height="60" as="geometry" />
        </mxCell>
        <mxCell id="fRPLNg00OoRIL8k4YSKu-5" value="" style="edgeStyle=orthogonalEdgeStyle;rounded=0;orthogonalLoop=1;jettySize=auto;html=1;" edge="1" parent="1" source="fRPLNg00OoRIL8k4YSKu-2" target="fRPLNg00OoRIL8k4YSKu-4">
          <mxGeometry relative="1" as="geometry" />
        </mxCell>
        <mxCell id="fRPLNg00OoRIL8k4YSKu-2" value="Display&amp;nbsp;&lt;div&gt;a=0&lt;/div&gt;&lt;div&gt;b=1&lt;/div&gt;" style="shape=parallelogram;perimeter=parallelogramPerimeter;whiteSpace=wrap;html=1;fixedSize=1;rounded=1;" vertex="1" parent="1">
          <mxGeometry x="260" y="290" width="120" height="60" as="geometry" />
        </mxCell>
        <mxCell id="fRPLNg00OoRIL8k4YSKu-4" value="c=a+b&lt;div&gt;d=b+c&lt;/div&gt;&lt;div&gt;e=c+d&lt;/div&gt;" style="shape=parallelogram;perimeter=parallelogramPerimeter;whiteSpace=wrap;html=1;fixedSize=1;rounded=1;" vertex="1" parent="1">
          <mxGeometry x="260" y="390" width="120" height="60" as="geometry" />
        </mxCell>
      </root>
    </mxGraphModel>
  </diagram>
</mxfile>
